<?xml version="1.0" standalone="no"?>
<svg xmlns="http://www.w3.org/2000/svg" viewBox="0 0 194.641 36" width="194.641" height="36"><g fill="#ff5576" color="#ff5576" transform="translate(0 3.9999999999999982) scale(0.5600001)"><svg width="50.0" height="50.0" x="0.0" y="0.0" viewBox="0 0 50 50"><path fill="currentColor" fill-rule="evenodd" d="M25 0l25 25-25 25L0 25 25 0zm0 8.333L8.333 25 25 41.667 41.667 25 25 8.333zm0 8.334L33.333 25 25 33.333 16.667 25 25 16.667z"></path></svg></g><path fill="#e6e7e9" fill-rule="nonzero" d="M16.44 16.80L11.14 16.80L11.14 10.54L5.30 10.54L5.30 16.80L0 16.80L0 0.29L5.30 0.29L5.30 6.31L11.14 6.31L11.14 0.29L16.44 0.29L16.44 16.80ZM27.86 0Q31.54 0 33.67 1.84Q35.81 3.67 35.81 7.08L35.81 7.08L30.74 7.08Q30.74 5.64 29.99 4.80Q29.23 3.96 27.84 3.96L27.84 3.96Q26.23 3.96 25.48 4.97Q24.72 5.98 24.72 7.78L24.72 7.78L24.72 9.31Q24.72 11.09 25.48 12.11Q26.23 13.13 27.79 13.13L27.79 13.13Q29.33 13.13 30.12 12.34Q30.91 11.54 30.91 10.10L30.91 10.10L35.81 10.10Q35.81 13.49 33.73 15.29Q31.66 17.09 27.86 17.09L27.86 17.09Q23.64 17.09 21.47 14.93Q19.30 12.77 19.30 8.54L19.30 8.54Q19.30 4.32 21.47 2.16Q23.64 0 27.86 0L27.86 0ZM54.96 0Q57.34 0 59.23 0.72Q61.13 1.44 62.24 2.84Q63.36 4.25 63.36 6.26L63.36 6.26L58.30 6.26Q58.30 5.23 57.38 4.60Q56.47 3.96 55.18 3.96L55.18 3.96Q53.30 3.96 52.34 4.96Q51.38 5.95 51.38 7.78L51.38 7.78L51.38 9.31Q51.38 11.14 52.34 12.13Q53.30 13.13 55.18 13.13L55.18 13.13Q56.47 13.13 57.38 12.52Q58.30 11.90 58.30 10.94L58.30 10.94L54.55 10.94L54.55 7.58L63.36 7.58L63.36 16.80L60.62 16.80L60.10 15.17Q57.84 17.09 54.19 17.09L54.19 17.09Q50.09 17.09 48.02 14.94Q45.96 12.79 45.96 8.54L45.96 8.54Q45.96 4.34 48.30 2.17Q50.64 0 54.96 0L54.96 0ZM72.86 3.84Q76.20 3.84 78.11 5.53Q80.02 7.22 80.02 10.46L80.02 10.46Q80.02 13.70 78.11 15.40Q76.20 17.09 72.86 17.09L72.86 17.09Q69.53 17.09 67.63 15.41Q65.74 13.73 65.74 10.46L65.74 10.46Q65.74 7.20 67.63 5.52Q69.53 3.84 72.86 3.84L72.86 3.84ZM72.86 7.08Q70.51 7.08 70.51 9.79L70.51 9.79L70.51 11.16Q70.51 13.85 72.86 13.85L72.86 13.85Q75.24 13.85 75.24 11.16L75.24 11.16L75.24 9.79Q75.24 7.08 72.86 7.08L72.86 7.08ZM95.42 16.80L91.51 16.80L91.20 14.88Q90.46 15.91 89.24 16.50Q88.03 17.09 86.69 17.09L86.69 17.09Q84.48 17.09 83.38 15.86Q82.27 14.64 82.27 12.34L82.27 12.34L82.27 4.13L87.05 4.13L87.05 11.76Q87.05 12.58 87.47 13.07Q87.89 13.56 88.66 13.56L88.66 13.56Q89.54 13.56 90.10 12.98Q90.65 12.41 90.65 11.57L90.65 11.57L90.65 4.13L95.42 4.13L95.42 16.80ZM106.03 3.82Q106.58 3.82 107.02 3.95Q107.45 4.08 107.45 4.10L107.45 4.10L107.45 8.11L105.91 8.11Q104.42 8.11 103.76 8.88Q103.10 9.65 103.10 11.16L103.10 11.16L103.10 16.80L98.33 16.80L98.33 4.13L102.24 4.13L102.55 6.05Q102.98 4.94 103.92 4.38Q104.86 3.82 106.03 3.82L106.03 3.82ZM127.01 3.84Q129.17 3.84 130.25 5.08Q131.33 6.31 131.33 8.59L131.33 8.59L131.33 16.80L126.55 16.80L126.55 9.17Q126.55 8.35 126.16 7.86Q125.76 7.37 125.04 7.37L125.04 7.37Q124.20 7.37 123.67 7.94Q123.14 8.52 123.14 9.36L123.14 9.36L123.14 16.80L118.37 16.80L118.37 9.17Q118.37 8.35 117.97 7.86Q117.58 7.37 116.86 7.37L116.86 7.37Q116.02 7.37 115.49 7.94Q114.96 8.52 114.96 9.36L114.96 9.36L114.96 16.80L110.18 16.80L110.18 4.13L114.10 4.13L114.41 6.02Q115.13 5.02 116.32 4.43Q117.50 3.84 118.82 3.84L118.82 3.84Q121.68 3.84 122.66 6.02L122.66 6.02Q123.41 5.02 124.57 4.43Q125.74 3.84 127.01 3.84L127.01 3.84ZM140.74 3.84Q144.22 3.84 146.05 5.47Q147.89 7.10 147.89 10.46L147.89 10.46L147.89 11.28L138.38 11.28Q138.38 12.65 139.00 13.34Q139.61 14.04 140.93 14.04L140.93 14.04Q142.13 14.04 142.69 13.54Q143.26 13.03 143.26 12.19L143.26 12.19L147.89 12.19Q147.89 14.50 146.14 15.79Q144.38 17.09 141.02 17.09L141.02 17.09Q137.50 17.09 135.55 15.44Q133.61 13.80 133.61 10.46L133.61 10.46Q133.61 7.20 135.50 5.52Q137.40 3.84 140.74 3.84L140.74 3.84ZM140.93 6.89Q138.67 6.89 138.41 9.02L138.41 9.02L143.06 9.02Q143.06 8.04 142.50 7.46Q141.94 6.89 140.93 6.89L140.93 6.89ZM155.95 4.13L158.64 4.13L158.64 7.37L155.95 7.37L155.95 12.19Q155.95 13.06 156.24 13.45Q156.53 13.85 157.30 13.85L157.30 13.85L158.64 13.85L158.64 16.66Q158.06 16.85 157.15 16.97Q156.24 17.09 155.57 17.09L155.57 17.09Q153.46 17.09 152.32 16.32Q151.18 15.55 151.18 13.70L151.18 13.70L151.18 7.37L149.40 7.37L149.40 4.13L151.37 4.13L152.40 0.29L155.95 0.29L155.95 4.13Z" transform="translate(36, 9.6)"></path></svg>